<svg>
  <defs>
    <svg id="hide-text"
         height="24"
         viewBox="-4 -4 32 32"
         width="24"
         xmlns="http://www.w3.org/2000/svg">
      <path d="M0 0h24v24H0zm0 0h24v24H0zm0 0h24v24H0zm0 0h24v24H0z"
            fill="none" />
      <path
        d="M12 7c2.76 0 5 2.24 5 5 0 .65-.13 1.26-.36 1.83l2.92 2.92c1.51-1.26 2.7-2.89 3.43-4.75-1.73-4.39-6-7.5-11-7.5-1.4 0-2.74.25-3.98.7l2.16 2.16C10.74 7.13 11.35 7 12 7zM2 4.27l2.28 2.28.46.46C3.08 8.3 1.78 10.02 1 12c1.73 4.39 6 7.5 11 7.5 1.55 0 3.03-.3 4.38-.84l.42.42L19.73 22 21 20.73 3.27 3 2 4.27zM7.53 9.8l1.55 1.55c-.05.21-.08.43-.08.65 0 1.66 1.34 3 3 3 .22 0 .44-.03.65-.08l1.55 1.55c-.67.33-1.41.53-2.2.53-2.76 0-5-2.24-5-5 0-.79.2-1.53.53-2.2zm4.31-.78l3.15 3.15.02-.16c0-1.66-1.34-3-3-3l-.17.01z" />
    </svg>

    <svg id="show-text"
         height="16"
         viewBox="-4 -4 32 32"
         width="24"
         xmlns="http://www.w3.org/2000/svg">
      <path d="M0 0h24v24H0z"
            fill="none" />
      <path
        d="M12 4.5C7 4.5 2.73 7.61 1 12c1.73 4.39 6 7.5 11 7.5s9.27-3.11 11-7.5c-1.73-4.39-6-7.5-11-7.5zM12 17c-2.76 0-5-2.24-5-5s2.24-5 5-5 5 2.24 5 5-2.24 5-5 5zm0-8c-1.66 0-3 1.34-3 3s1.34 3 3 3 3-1.34 3-3-1.34-3-3-3z" />
    </svg>

    <svg id="google-icon" xmlns="http://www.w3.org/2000/svg" width="705.6" height="720" viewBox="0 0 186.69 190.5" xmlns:v="https://vecta.io/nano"><g transform="translate(1184.583 765.171)"><path clip-path="none" mask="none" d="M-1089.333-687.239v36.888h51.262c-2.251 11.863-9.006 21.908-19.137 28.662l30.913 23.986c18.011-16.625 28.402-41.044 28.402-70.052 0-6.754-.606-13.249-1.732-19.483z" fill="#4285f4"/><path clip-path="none" mask="none" d="M-1142.714-651.791l-6.972 5.337-24.679 19.223h0c15.673 31.086 47.796 52.561 85.03 52.561 25.717 0 47.278-8.486 63.038-23.033l-30.913-23.986c-8.486 5.715-19.31 9.179-32.125 9.179-24.765 0-45.806-16.712-53.34-39.226z" fill="#34a853"/><path clip-path="none" mask="none" d="M-1174.365-712.61c-6.494 12.815-10.217 27.276-10.217 42.689s3.723 29.874 10.217 42.689c0 .086 31.693-24.592 31.693-24.592-1.905-5.715-3.031-11.776-3.031-18.098s1.126-12.383 3.031-18.098z" fill="#fbbc05"/><path d="M-1089.333-727.244c14.028 0 26.497 4.849 36.455 14.201l27.276-27.276c-16.539-15.413-38.013-24.852-63.731-24.852-37.234 0-69.359 21.388-85.032 52.561l31.692 24.592c7.533-22.514 28.575-39.226 53.34-39.226z" fill="#ea4335" clip-path="none" mask="none"/>
    </g></svg>

  </defs>
</svg>